<svg width="18" height="16" viewBox="0 0 18 16" fill="none" xmlns="http://www.w3.org/2000/svg">
<path d="M14.5646 0.642639H3.73635C2.13928 0.642639 0.839722 1.78073 0.839722 3.17992V12.7084C0.839722 14.1074 2.139 15.2457 3.73635 15.2457H14.5643C16.1614 15.2457 17.4609 14.1076 17.4609 12.7084V3.17967C17.4609 1.78073 16.1617 0.642639 14.5646 0.642639ZM11.6552 7.91714C11.6552 9.12698 10.5317 10.1111 9.15047 10.1111C7.76928 10.1111 6.64579 9.12698 6.64579 7.91714C6.64579 7.31695 6.92282 6.77282 7.36994 6.37643H10.9307C11.3784 6.77282 11.6552 7.31695 11.6552 7.91714ZM12.3813 2.67266H14.9184V4.96204H12.3813V2.67266ZM14.5646 13.7506H3.73635C3.08017 13.7506 2.5463 13.2829 2.5463 12.7082V6.37643H5.32916C5.08142 6.84607 4.93921 7.36678 4.93921 7.91714C4.93921 9.9514 6.82839 11.606 9.15047 11.606C11.4726 11.606 13.3617 9.95115 13.3617 7.91714C13.3617 7.36678 13.2195 6.84607 12.9718 6.37643H15.7544V12.7082C15.7544 13.2829 15.2205 13.7506 14.5646 13.7506Z" fill="white"/>
</svg>
