<svg width="19" height="17" viewBox="0 0 19 17" fill="none" xmlns="http://www.w3.org/2000/svg">
<path d="M9.07569 4.19221C9.37236 4.19221 9.66237 4.27032 9.90904 4.41668C10.1557 4.56303 10.348 4.77105 10.4615 5.01442C10.575 5.2578 10.6047 5.5256 10.5469 5.78397C10.489 6.04233 10.3461 6.27966 10.1363 6.46593C9.92657 6.6522 9.65929 6.77905 9.36832 6.83045C9.07735 6.88184 8.77575 6.85546 8.50166 6.75465C8.22757 6.65384 7.9933 6.48313 7.82848 6.2641C7.66366 6.04506 7.57569 5.78755 7.57569 5.52412C7.57614 5.171 7.73432 4.83246 8.01552 4.58276C8.29673 4.33306 8.678 4.19261 9.07569 4.19221ZM9.07569 2.19434C8.33401 2.19434 7.60898 2.38962 6.9923 2.75551C6.37561 3.12139 5.89497 3.64143 5.61114 4.24987C5.32731 4.85831 5.25305 5.52782 5.39774 6.17373C5.54244 6.81965 5.89959 7.41296 6.42403 7.87864C6.94848 8.34432 7.61667 8.66145 8.3441 8.78993C9.07153 8.91841 9.82552 8.85247 10.5107 8.60045C11.196 8.34842 11.7816 7.92164 12.1937 7.37405C12.6058 6.82647 12.8257 6.18269 12.8257 5.52412C12.8257 4.64101 12.4306 3.79406 11.7273 3.16961C11.0241 2.54515 10.0702 2.19434 9.07569 2.19434Z" fill="white"/>
<path d="M9.07574 11.6842C7.79989 11.6849 6.5478 11.3778 5.45318 10.7958C5.21477 10.6684 5.04309 10.4621 4.97584 10.2223C4.90858 9.98251 4.95125 9.72883 5.09448 9.51696C5.2377 9.30509 5.46977 9.15235 5.73972 9.09229C6.00966 9.03223 6.29542 9.06976 6.53424 9.19663C7.31896 9.60373 8.21311 9.81471 9.12191 9.80721C10.0307 9.7997 10.9203 9.57399 11.6963 9.15401C11.8133 9.08867 11.9435 9.04446 12.0797 9.02391C12.2159 9.00337 12.3553 9.00689 12.49 9.03427C12.6247 9.06165 12.7519 9.11236 12.8644 9.18349C12.977 9.25462 13.0726 9.34477 13.1459 9.44877C13.2191 9.55278 13.2685 9.66859 13.2912 9.78958C13.314 9.91057 13.3096 10.0344 13.2784 10.1538C13.2471 10.2733 13.1897 10.3862 13.1092 10.4859C13.0288 10.5856 12.927 10.6703 12.8096 10.735C11.69 11.3563 10.396 11.6853 9.07574 11.6842Z" fill="white"/>
<path d="M12.0757 15.2472C11.9378 15.2473 11.8011 15.2233 11.6737 15.1764C11.5462 15.1295 11.4305 15.0607 11.3331 14.974L9.07573 12.9696L6.8184 14.974C6.72099 15.0609 6.60524 15.1298 6.47777 15.177C6.35031 15.2241 6.21363 15.2484 6.07556 15.2485C5.9375 15.2487 5.80075 15.2247 5.67316 15.1778C5.54556 15.131 5.42962 15.0623 5.33197 14.9756C5.23431 14.889 5.15687 14.786 5.10406 14.6728C5.05126 14.5595 5.02413 14.4381 5.02423 14.3155C5.02433 14.1929 5.05166 14.0715 5.10465 13.9583C5.15764 13.8451 5.23526 13.7423 5.33305 13.6557L9.07573 10.3325L12.8184 13.6557C12.9652 13.7861 13.0652 13.9523 13.1057 14.1331C13.1462 14.314 13.1253 14.5014 13.0459 14.6718C12.9664 14.8421 12.8318 14.9877 12.6591 15.0901C12.4864 15.1925 12.2834 15.2472 12.0757 15.2472Z" fill="white"/>
</svg>
