<svg width="36" height="32" viewBox="0 0 36 32" fill="none" xmlns="http://www.w3.org/2000/svg">
<path opacity="0.5" d="M0 10C0 4.47715 4.47715 0 10 0H26C31.5228 0 36 4.47715 36 10V21.5C36 27.0228 31.5228 31.5 26 31.5H10C4.47715 31.5 0 27.0228 0 21.5V10Z" fill="#BCABF9"/>
<path d="M9 11.1415C9 10.4511 9.55964 9.89148 10.25 9.89148H25.75C26.4404 9.89148 27 10.4511 27 11.1415C27 11.8318 26.4404 12.3915 25.75 12.3915H10.25C9.55964 12.3915 9 11.8318 9 11.1415Z" fill="white"/>
<path d="M9 15.75C9 15.0596 9.55964 14.5 10.25 14.5H25.75C26.4404 14.5 27 15.0596 27 15.75C27 16.4404 26.4404 17 25.75 17H10.25C9.55964 17 9 16.4404 9 15.75Z" fill="white"/>
<path d="M9 20.3585C9 19.6681 9.55964 19.1085 10.25 19.1085H25.75C26.4404 19.1085 27 19.6681 27 20.3585C27 21.0488 26.4404 21.6085 25.75 21.6085H10.25C9.55964 21.6085 9 21.0488 9 20.3585Z" fill="white"/>
</svg>
