<svg width="21" height="11" viewBox="0 0 21 11" fill="none" xmlns="http://www.w3.org/2000/svg">
<path d="M0.289772 1.99435C0.51801 2.5208 0.799334 3.02845 1.0897 3.52983C1.77966 4.72109 2.49019 5.87863 3.44283 6.92566C4.40555 7.98375 5.54217 9.00915 6.88109 9.69363C7.25347 9.884 7.64495 10.0446 8.05272 10.1667C9.62605 10.6376 11.3516 10.5928 11.8845 10.2788C12.4175 9.96488 11.783 7.90182 12.2652 7.65516C12.7474 7.40848 13.6102 7.94669 14.2445 8.44003C14.8789 8.93335 15.3611 9.3594 15.7164 9.69577C15.9389 9.90642 16.0955 10.1578 16.3856 10.3081C16.8653 10.5565 17.5046 10.529 18.0398 10.5303C18.3381 10.5311 18.6365 10.532 18.9349 10.5287C19.1366 10.5265 19.3383 10.5322 19.5398 10.5236C19.8709 10.5094 20.3039 10.3939 20.279 10.0278C20.2732 9.94131 20.2514 9.83779 20.2125 9.7579C20.1289 9.58621 20.0111 9.40804 19.8844 9.25848C19.2247 8.47924 18.7869 8.08122 18.4571 7.76724C18.1271 7.45335 16.7695 6.32087 16.6807 6.09666C16.5919 5.8724 16.5633 5.77291 16.8155 5.47018C17.0677 5.16741 17.6196 4.4036 18.0511 3.85423C18.3216 3.50966 18.5674 3.14938 18.8102 2.78925C19.0965 2.36466 19.3658 1.92978 19.5953 1.47885C19.6979 1.27721 19.791 1.09352 19.7275 0.867582C19.6849 0.716214 19.5886 0.583233 19.4092 0.545882C19.3112 0.525503 19.2044 0.523434 19.1042 0.523434C18.7299 0.523434 17.7528 0.523434 17.7528 0.523434C17.5762 0.523434 17.3996 0.521155 17.223 0.521443C17.0419 0.521731 16.8593 0.520474 16.6788 0.534146C16.4219 0.553582 16.2645 0.728629 16.1353 0.905117C15.9772 1.12108 15.8333 1.34576 15.68 1.56445C15.5751 1.71388 15.4725 1.86448 15.3718 2.01609C15.2143 2.25287 15.0521 2.48712 14.8899 2.72139C14.8226 2.81856 14.7551 2.91563 14.6887 3.01333C14.4984 3.29357 12.8489 5.21087 12.519 5.28939C12.1892 5.36792 12.0749 5.3455 12.0749 4.75121C12.0749 4.15697 12.0749 0.782115 12.0749 0.782115C12.0749 0.782115 12.0496 0.521888 11.7705 0.521888C11.4913 0.521888 10.1966 0.521888 10.1966 0.521888H7.52617C7.52617 0.521888 6.89814 0.524193 7.12018 1.02317C7.34222 1.52212 7.99886 1.67349 7.99886 2.50598C7.99886 3.33844 7.99886 5.7687 7.99886 5.7687C7.99886 5.7687 7.88786 6.50029 7.17095 5.89482C6.60602 5.41771 6.14056 4.85362 5.72929 4.26873C5.30169 3.66066 4.9572 3.02894 4.65035 2.36708C4.56258 2.17778 4.47568 1.98817 4.38554 1.79976C4.29146 1.60308 4.19824 1.40606 4.10801 1.20799C4.00323 0.977907 3.89112 0.677187 3.60858 0.571262C3.46654 0.518012 3.30944 0.520631 3.15804 0.520657C2.59654 0.520788 2.03508 0.522177 1.47361 0.521234C1.30887 0.520972 1.14412 0.520814 0.979375 0.521181C0.590393 0.521993 0.106589 0.511856 0.0143162 0.941263C-0.0388602 1.1886 0.0668406 1.45263 0.15532 1.68428C0.195424 1.7896 0.244895 1.89081 0.289772 1.99435Z" fill="white"/>
</svg>
