<svg width="18" height="15" viewBox="0 0 18 15" fill="none" xmlns="http://www.w3.org/2000/svg">
<g clip-path="url(#clip0)">
<path d="M0.400784 12.9517C2.21853 13.0919 3.85646 12.6995 5.34727 11.7409C3.7878 11.6232 2.74489 10.9561 2.16295 9.706C2.67296 9.75925 3.15028 9.77327 3.65703 9.65555C1.9766 9.20709 1.0808 8.26533 0.959838 6.74617C1.46331 6.94798 1.93736 7.09373 2.49642 7.09933C1.49928 6.45748 0.989262 5.62502 1.00888 4.57675C1.01869 4.09466 1.16907 3.64059 1.46658 3.21175C3.31375 5.06445 5.6317 6.0903 8.48581 6.26127C8.46947 6.15477 8.45966 6.07068 8.44658 5.98379C8.21119 4.431 9.38815 3.01836 11.1863 2.72405C12.3142 2.53906 13.3113 2.79413 14.1548 3.46121C14.2856 3.56211 14.3967 3.58453 14.5602 3.5481C15.2173 3.40515 15.8418 3.19774 16.4466 2.91745C16.2145 3.57332 15.7372 4.06663 15.0898 4.48145C15.237 4.45903 15.3873 4.44221 15.5345 4.41699C15.6881 4.38896 15.8418 4.35813 15.9954 4.32169C16.1426 4.28805 16.2864 4.24881 16.4303 4.20677C16.5774 4.16473 16.7245 4.11708 16.8978 4.09185C16.8128 4.19276 16.731 4.29927 16.6395 4.39737C16.2603 4.80939 15.8222 5.17096 15.3416 5.49329C15.2925 5.52692 15.25 5.5998 15.2533 5.65025C15.2795 6.64527 15.116 7.61506 14.74 8.55682C14.0012 10.4123 12.713 11.9147 10.7809 12.9882C9.82623 13.5179 8.78332 13.8655 7.66848 14.0673C6.56345 14.2663 5.45188 14.3027 4.33705 14.1906C3.21894 14.0785 2.15641 13.7954 1.156 13.3525C0.891182 13.2376 0.636175 13.1087 0.377899 12.9854C0.387707 12.9741 0.394246 12.9629 0.400784 12.9517Z" fill="white"/>
</g>
<defs>
<clipPath id="clip0">
<rect width="16.7389" height="14.3507" fill="white" transform="translate(0.270081 0.605103)"/>
</clipPath>
</defs>
</svg>
